<svg xmlns="http://www.w3.org/2000/svg" viewBox="0 0 517.21 413.89"><defs><style>.cls-1{fill:#ffefdf;}</style></defs><g id="Calque_2" data-name="Calque 2"><g id="Calque_3" data-name="Calque 3"><path class="cls-1" d="M52.27,39.09c66.94-2.23,68.48,35.6,113.46,35.6s44.11-42.63,87-42.63,76.77,31.66,98.59,30.65C391.21,60.86,385.74,0,424.47,0s36.71,55.92,50.82,74.69c15.92,21.17,41.92,20.63,41.92,37.17,0,29-40.74,24-40.74,69.41,0,29.59,2.9,53.29-.18,99.94s-45.08,85.65-84.08,85.65-43.87-29.06-80.43-29.06c-30.57,0-39.57,59.57-72.33,59.57-44.24,0-52.34-37.94-91.79-36.72S90.8,441.13,37.51,404-1.75,309.06,15.74,255.63c24.47-74.77-8.53-73.77-13.89-135.74C-2.46,70.11,11.93,40.43,52.27,39.09Z"/></g></g></svg>