<svg xmlns="http://www.w3.org/2000/svg" viewBox="0 0 536.83 710.3"><defs><style>.cls-1{fill:#fff594;}</style></defs><g id="Calque_2" data-name="Calque 2"><g id="Calque_4" data-name="Calque 4"><path class="cls-1" d="M183.31,63.1c40.88,2.7,54-59.45,101.19-53.15,51.77,6.92,31.91,122.82,71.82,173.67,33.95,43.25,170.88,10.36,180,78.25C545.91,334,427.86,378.8,426.37,431.7c-2.1,74.17,93.55,135.5,54.36,195.11C439.27,689.87,347,638.93,278.65,641.92c-67.38,3-192.53,101.17-234.38,57-53-56,65.71-127.46,56.36-174.73S29.66,485,24,436.43s82.17-123.89,80.92-174.72C103.27,195.87-38.57,50.86,10.2,11.21,62.27-31.13,134.27,59.87,183.31,63.1Z"/></g></g></svg>