<?xml version="1.0" encoding="utf-8"?>
<!-- Generator: Adobe Illustrator 25.2.3, SVG Export Plug-In . SVG Version: 6.00 Build 0)  -->
<svg version="1.1" id="Calque_1" xmlns="http://www.w3.org/2000/svg" xmlns:xlink="http://www.w3.org/1999/xlink" x="0px" y="0px"
	 viewBox="0 0 285.3 298" style="enable-background:new 0 0 285.3 298;" xml:space="preserve">
<style type="text/css">
	.st0{fill:#FFEFDF;}
</style>
<g id="Calque_2_1_">
	<g id="Calque_1-2">
		<polygon class="st0" points="12.6,34 39.4,34 39.4,58.6 49.9,58.6 49.9,0.8 39.4,0.8 39.4,25.3 12.6,25.3 12.6,0.8 2.1,0.8 
			2.1,58.6 12.6,58.6 		"/>
		<path class="st0" d="M72.7,55.9c8.5,4.7,18.7,4.7,27.2,0c4.1-2.4,7.4-6,9.5-10.2c2.4-5,3.6-10.5,3.5-16c0.2-5.5-1-11-3.5-16
			c-2.1-4.2-5.4-7.7-9.5-10.2c-8.5-4.7-18.7-4.7-27.2,0c-4.1,2.4-7.4,6-9.5,10.2c-2.4,5-3.6,10.5-3.5,16c-0.2,5.5,1,11,3.5,16
			C65.4,49.9,68.7,53.4,72.7,55.9z M72.3,18.6c1.2-2.8,3.1-5.2,5.7-6.9c5.1-3.1,11.5-3.1,16.7,0c2.5,1.7,4.5,4.1,5.7,6.9
			c1.4,3.5,2.1,7.3,2,11.1c0.1,3.8-0.6,7.6-2,11.1c-1.2,2.8-3.1,5.2-5.7,6.9c-5.1,3.1-11.5,3.1-16.7,0c-2.5-1.7-4.5-4.1-5.7-6.9
			c-1.4-3.5-2.1-7.3-2-11.1C70.2,25.9,70.9,22.1,72.3,18.6z"/>
		<polygon class="st0" points="132.9,18.8 133.4,18.8 149.4,58.4 156.9,58.4 172.9,18.9 173.4,18.9 173.4,58.6 183.5,58.6 
			183.5,0.8 170.7,0.8 153.5,42.7 152.8,42.7 135.7,0.8 122.8,0.8 122.8,58.6 132.9,58.6 		"/>
		<polygon class="st0" points="232.7,49.8 205.4,49.8 205.4,34 230.6,34 230.6,25.3 205.4,25.3 205.4,9.6 232.5,9.6 232.5,0.8 
			194.9,0.8 194.9,58.6 232.7,58.6 		"/>
		<polygon class="st0" points="12.1,98.3 12.7,98.3 28.7,137.9 36.2,137.9 52.2,98.4 52.7,98.4 52.7,138.1 62.7,138.1 62.7,80.3 
			49.9,80.3 32.8,122.2 32.1,122.2 14.9,80.3 2.1,80.3 2.1,138.1 12.1,138.1 		"/>
		<path class="st0" d="M124.1,138.1l-20.4-57.8H90.7l-20.3,57.8h11.2l4.8-14.3h21.7l4.8,14.3H124.1z M89.2,115.4L97,92.2h0.5
			l7.8,23.3L89.2,115.4z"/>
		<path class="st0" d="M176,124.7c2.3-4.8,3.5-10.2,3.3-15.5c0.1-5.3-1-10.7-3.3-15.5c-2.1-4.2-5.4-7.6-9.5-9.9
			c-4.6-2.4-9.7-3.6-14.8-3.5h-20v57.8h19.6c5.2,0.1,10.4-1,15.1-3.5C170.5,132.4,173.9,128.9,176,124.7z M166.9,120.2
			c-1.2,2.8-3.4,5.1-6.1,6.6c-3.1,1.6-6.6,2.3-10.1,2.2h-8.6V89.4h8.9c3.4-0.1,6.8,0.6,9.8,2.2c2.7,1.5,4.8,3.8,6,6.6
			c1.4,3.5,2.1,7.2,2,11C169.1,112.9,168.4,116.7,166.9,120.2z"/>
		<polygon class="st0" points="227.1,129.3 199.8,129.3 199.8,113.6 224.9,113.6 224.9,104.8 199.8,104.8 199.8,89.1 226.9,89.1 
			226.9,80.3 189.3,80.3 189.3,138.1 227.1,138.1 		"/>
		<path class="st0" d="M38.8,189.6c-1.8-1.1-3.8-1.8-5.9-1.9v-0.6c1.8-0.4,3.6-1.2,5.1-2.2c1.5-1,2.8-2.4,3.6-4
			c0.9-1.9,1.4-3.9,1.3-6c0-2.7-0.7-5.4-2.1-7.7c-1.5-2.4-3.7-4.2-6.2-5.4c-3.3-1.4-6.8-2.1-10.4-2H2.1v57.8h23.4
			c3.8,0.1,7.5-0.6,11-2.1c2.7-1.2,5-3.2,6.5-5.6c1.5-2.4,2.2-5.2,2.2-8.1c0.1-2.6-0.5-5.2-1.8-7.5
			C42.3,192.4,40.7,190.7,38.8,189.6z M12.6,168.4h10.6c3.1,0,5.4,0.7,7,2.2c1.6,1.4,2.4,3.4,2.4,5.5c0,1.6-0.4,3.1-1.3,4.4
			c-0.9,1.3-2,2.2-3.4,2.9c-1.5,0.7-3.2,1-4.9,1H12.6V168.4z M32.1,206.7c-1.7,1.5-4.4,2.2-8.2,2.2H12.6v-16.9h11.6
			c1.9-0.1,3.8,0.4,5.6,1.2c1.5,0.7,2.7,1.9,3.6,3.3c0.8,1.4,1.3,3,1.3,4.6C34.6,203.2,33.7,205.3,32.1,206.7z"/>
		<polygon class="st0" points="71.4,217.6 81.9,217.6 81.9,196.1 102.9,159.8 91.1,159.8 76.9,185.4 76.4,185.4 62.2,159.8 
			50.4,159.8 71.4,196.1 		"/>
		<path class="st0" d="M39.2,269.6c-1.7-1.3-3.5-2.4-5.5-3.3c-2-0.9-4.2-1.6-6.3-2.1l-5.4-1.3c-1.2-0.3-2.4-0.6-3.5-1
			c-1.1-0.4-2.2-0.9-3.2-1.5c-0.9-0.6-1.7-1.3-2.3-2.2c-0.6-0.9-0.9-2-0.8-3.1c0-1.4,0.4-2.7,1.3-3.9c0.9-1.2,2.1-2.1,3.6-2.7
			c1.8-0.7,3.7-1,5.6-1c2.7-0.1,5.3,0.6,7.6,2.1c1.9,1.3,3.1,3.4,3.3,5.8h10.1c0-3.1-1-6.1-2.7-8.7c-1.9-2.6-4.4-4.6-7.3-5.9
			c-3.4-1.5-7.1-2.2-10.8-2.1c-3.7-0.1-7.4,0.7-10.9,2.1c-3,1.3-5.6,3.4-7.6,6c-1.9,2.6-2.9,5.7-2.8,8.9c-0.2,3.8,1.3,7.4,4.1,10
			c3.3,2.7,7.1,4.7,11.3,5.6l6.6,1.7c1.9,0.4,3.7,1,5.5,1.7c1.4,0.5,2.6,1.4,3.6,2.5c0.9,1,1.4,2.4,1.3,3.8c0,1.6-0.5,3.1-1.5,4.3
			c-1.1,1.3-2.4,2.3-4,2.9c-1.9,0.7-4,1.1-6,1c-2,0-4-0.3-5.9-1c-1.7-0.6-3.2-1.6-4.3-3c-1.1-1.4-1.8-3.2-1.9-5H0
			c0,3.5,1.1,6.9,3,9.8c1.9,2.7,4.6,4.9,7.7,6.1c3.7,1.5,7.7,2.2,11.7,2.1c4.1,0.1,8.1-0.6,11.8-2.2c3-1.2,5.6-3.3,7.5-6
			c1.8-2.6,2.7-5.8,2.6-8.9c0.1-2.3-0.4-4.5-1.4-6.5C42.1,272.5,40.8,270.9,39.2,269.6z"/>
		<path class="st0" d="M92.4,242.1c-4.1-2.4-8.8-3.6-13.6-3.5c-4.8-0.1-9.5,1.1-13.6,3.5c-4.1,2.4-7.4,6-9.5,10.2
			c-4.7,10.2-4.7,21.8,0,32c2.1,4.2,5.4,7.8,9.5,10.2c4.1,2.4,8.8,3.6,13.6,3.5c4.8,0.1,9.5-1.1,13.6-3.5c4.1-2.4,7.4-6,9.5-10.2
			c4.7-10.2,4.7-21.8,0-32C99.8,248,96.5,244.5,92.4,242.1z M92.8,279.3c-1.2,2.8-3.1,5.2-5.7,6.9c-5.1,3.1-11.5,3.1-16.7,0
			c-2.5-1.7-4.5-4.1-5.7-6.9c-2.7-7.2-2.7-15.1,0-22.2c1.2-2.8,3.1-5.2,5.7-6.9c5.1-3.1,11.5-3.1,16.7,0c2.5,1.7,4.5,4.1,5.7,6.9
			C95.5,264.3,95.5,272.2,92.8,279.3z"/>
		<path class="st0" d="M148.2,241.8c-3.5-1.8-7.3-2.6-11.2-2.5h-21.7v57.8h10.5v-19.5h11.1c3.9,0.1,7.8-0.7,11.3-2.5
			c2.9-1.5,5.3-3.9,6.9-6.8c3.1-6.2,3.1-13.5,0-19.7C153.5,245.7,151.1,243.3,148.2,241.8z M145.5,263.9c-0.8,1.6-2.1,2.9-3.7,3.7
			c-2,1-4.2,1.4-6.4,1.4h-9.7v-20.9h9.6c2.2-0.1,4.4,0.4,6.4,1.3c1.6,0.8,2.9,2.1,3.7,3.6c0.8,1.7,1.2,3.5,1.2,5.4
			C146.7,260.3,146.3,262.2,145.5,263.9z"/>
		<polygon class="st0" points="203.7,263.8 176.9,263.8 176.9,239.3 166.5,239.3 166.5,297.1 176.9,297.1 176.9,272.6 203.7,272.6 
			203.7,297.1 214.2,297.1 214.2,239.3 203.7,239.3 		"/>
		<rect x="225.6" y="239.3" class="st0" width="10.5" height="57.8"/>
		<polygon class="st0" points="257.9,288.4 257.9,272.6 283.1,272.6 283.1,263.8 257.9,263.8 257.9,248.1 285.1,248.1 285.1,239.3 
			247.5,239.3 247.5,297.1 285.3,297.1 285.3,288.4 		"/>
	</g>
</g>
</svg>
