<svg xmlns="http://www.w3.org/2000/svg" viewBox="0 0 285.3 298.01"><defs><style>.cls-1{fill:#2f323a;}</style></defs><g id="Calque_2" data-name="Calque 2"><g id="Calque_1-2" data-name="Calque 1"><polygon class="cls-1" points="12.56 34.05 39.36 34.05 39.36 58.61 49.86 58.61 49.86 0.79 39.36 0.79 39.36 25.27 12.56 25.27 12.56 0.79 2.09 0.79 2.09 58.61 12.56 58.61 12.56 34.05"/><path class="cls-1" d="M72.74,55.86a27.94,27.94,0,0,0,27.19,0,24.94,24.94,0,0,0,9.49-10.18,34,34,0,0,0,3.49-16,34,34,0,0,0-3.49-16A24.81,24.81,0,0,0,99.93,3.53a27.94,27.94,0,0,0-27.19,0,24.79,24.79,0,0,0-9.48,10.18,34,34,0,0,0-3.49,16,33.93,33.93,0,0,0,3.49,16A24.94,24.94,0,0,0,72.74,55.86Zm-.39-37.27A15.41,15.41,0,0,1,78,11.73a16.06,16.06,0,0,1,16.66,0,15.47,15.47,0,0,1,5.66,6.86,27,27,0,0,1,2,11.11,27,27,0,0,1-2,11.11,15.47,15.47,0,0,1-5.66,6.86,16.06,16.06,0,0,1-16.66,0,15.41,15.41,0,0,1-5.66-6.86,26.82,26.82,0,0,1-2-11.11A26.85,26.85,0,0,1,72.35,18.59Z"/><polygon class="cls-1" points="132.9 18.8 133.43 18.8 149.41 58.44 156.92 58.44 172.91 18.89 173.44 18.89 173.44 58.61 183.49 58.61 183.49 0.79 170.67 0.79 153.51 42.69 152.83 42.69 135.66 0.79 122.85 0.79 122.85 58.61 132.9 58.61 132.9 18.8"/><polygon class="cls-1" points="232.73 49.83 205.38 49.83 205.38 34.05 230.56 34.05 230.56 25.27 205.38 25.27 205.38 9.57 232.51 9.57 232.51 0.79 194.9 0.79 194.9 58.61 232.73 58.61 232.73 49.83"/><polygon class="cls-1" points="12.14 98.31 12.68 98.31 28.66 137.95 36.17 137.95 52.15 98.4 52.69 98.4 52.69 138.12 62.74 138.12 62.74 80.3 49.92 80.3 32.75 122.2 32.07 122.2 14.91 80.3 2.09 80.3 2.09 138.12 12.14 138.12 12.14 98.31"/><path class="cls-1" d="M124.06,138.12,103.68,80.3H90.74L70.39,138.12H81.57l4.78-14.26h21.74l4.79,14.26ZM89.17,115.45,97,92.16h.46l7.82,23.29Z"/><path class="cls-1" d="M176,124.68a33.52,33.52,0,0,0,3.34-15.53A33.42,33.42,0,0,0,176,93.68a23.29,23.29,0,0,0-9.53-9.92,29.89,29.89,0,0,0-14.81-3.46h-20v57.82h19.6a30.82,30.82,0,0,0,15.09-3.47A23.35,23.35,0,0,0,176,124.68Zm-9.08-4.47a14.06,14.06,0,0,1-6.07,6.63,20.71,20.71,0,0,1-10.08,2.22h-8.61V89.36h8.92a20.17,20.17,0,0,1,9.84,2.19,14,14,0,0,1,6,6.58,26.29,26.29,0,0,1,2,11A26.56,26.56,0,0,1,166.92,120.21Z"/><polygon class="cls-1" points="227.11 129.34 199.75 129.34 199.75 113.56 224.94 113.56 224.94 104.78 199.75 104.78 199.75 89.08 226.89 89.08 226.89 80.3 189.28 80.3 189.28 138.12 227.11 138.12 227.11 129.34"/><path class="cls-1" d="M38.78,189.55a12.75,12.75,0,0,0-5.92-1.88v-.56A15.51,15.51,0,0,0,38,184.88a11.55,11.55,0,0,0,3.64-4,12.55,12.55,0,0,0,1.35-6,14.44,14.44,0,0,0-2.07-7.68,14.19,14.19,0,0,0-6.24-5.35,24.45,24.45,0,0,0-10.43-2H2.09v57.82H25.5a25.91,25.91,0,0,0,11-2.06,14.8,14.8,0,0,0,6.55-5.64,15.16,15.16,0,0,0,2.17-8.06,14.66,14.66,0,0,0-1.81-7.51A13.24,13.24,0,0,0,38.78,189.55ZM12.56,168.44H23.15q4.63,0,7,2.18a7.2,7.2,0,0,1,2.36,5.53,7.59,7.59,0,0,1-1.26,4.39,8.08,8.08,0,0,1-3.43,2.85,11.51,11.51,0,0,1-4.88,1H12.56Zm19.5,38.25q-2.54,2.19-8.23,2.19H12.56V191.94H24.11a12.1,12.1,0,0,1,5.59,1.2,8.92,8.92,0,0,1,3.62,3.27,8.77,8.77,0,0,1,1.27,4.65A7.13,7.13,0,0,1,32.06,206.69Z"/><polygon class="cls-1" points="71.43 217.63 81.88 217.63 81.88 196.06 102.91 159.81 91.08 159.81 76.94 185.38 76.37 185.38 62.23 159.81 50.4 159.81 71.43 196.06 71.43 217.63"/><path class="cls-1" d="M39.15,269.58a22.7,22.7,0,0,0-5.45-3.28,38.79,38.79,0,0,0-6.31-2.06L22,262.89a34,34,0,0,1-3.53-1.05,15,15,0,0,1-3.19-1.54A7.29,7.29,0,0,1,13,258.06a5.83,5.83,0,0,1-.83-3.13,6.52,6.52,0,0,1,1.27-3.87A8.22,8.22,0,0,1,17,248.38a14.38,14.38,0,0,1,5.62-1,12.84,12.84,0,0,1,7.58,2.06,7.71,7.71,0,0,1,3.31,5.76H43.59a15.11,15.11,0,0,0-2.74-8.66,17.71,17.71,0,0,0-7.29-5.9,25.7,25.7,0,0,0-10.8-2.13,26.52,26.52,0,0,0-10.87,2.13,18.24,18.24,0,0,0-7.58,6,14.84,14.84,0,0,0-2.79,8.95,12.77,12.77,0,0,0,4.14,10,26.3,26.3,0,0,0,11.28,5.57l6.58,1.7A35.63,35.63,0,0,1,29,274.59a10,10,0,0,1,3.63,2.48,5.59,5.59,0,0,1,1.33,3.75,6.9,6.9,0,0,1-1.5,4.33,9.62,9.62,0,0,1-4,2.88,16,16,0,0,1-6,1,16.73,16.73,0,0,1-5.91-1,9.83,9.83,0,0,1-4.28-3,8.77,8.77,0,0,1-1.86-5H0a17.94,17.94,0,0,0,3,9.77,17.26,17.26,0,0,0,7.73,6.1A30.09,30.09,0,0,0,22.45,298a29.26,29.26,0,0,0,11.84-2.16,17.07,17.07,0,0,0,7.5-6,15.63,15.63,0,0,0,2.59-8.94A14.37,14.37,0,0,0,43,274.35,14.63,14.63,0,0,0,39.15,269.58Z"/><path class="cls-1" d="M92.4,242.05a26.36,26.36,0,0,0-13.6-3.53,26.33,26.33,0,0,0-13.59,3.53,24.88,24.88,0,0,0-9.49,10.18,38.33,38.33,0,0,0,0,32,25,25,0,0,0,9.49,10.19,26.15,26.15,0,0,0,13.59,3.55,26.36,26.36,0,0,0,13.6-3.53,24.92,24.92,0,0,0,9.48-10.18,38.4,38.4,0,0,0,0-32A24.85,24.85,0,0,0,92.4,242.05Zm.39,37.28a15.41,15.41,0,0,1-5.66,6.86,16.06,16.06,0,0,1-16.66,0,15.47,15.47,0,0,1-5.66-6.86,31.13,31.13,0,0,1,0-22.22,15.53,15.53,0,0,1,5.66-6.86,16.06,16.06,0,0,1,16.66,0,15.46,15.46,0,0,1,5.66,6.86,31.13,31.13,0,0,1,0,22.22Z"/><path class="cls-1" d="M148.19,241.8a23,23,0,0,0-11.2-2.49H115.31v57.83h10.47V277.6h11.07a23.49,23.49,0,0,0,11.26-2.47,16.66,16.66,0,0,0,6.92-6.79,22,22,0,0,0,0-19.73A16.73,16.73,0,0,0,148.19,241.8Zm-2.69,22.1a8.6,8.6,0,0,1-3.68,3.73,13.29,13.29,0,0,1-6.38,1.36h-9.66V248.06h9.6a13.74,13.74,0,0,1,6.43,1.32A8.4,8.4,0,0,1,145.5,253a11.76,11.76,0,0,1,1.2,5.42A11.88,11.88,0,0,1,145.5,263.9Z"/><polygon class="cls-1" points="203.74 263.79 176.94 263.79 176.94 239.31 166.47 239.31 166.47 297.14 176.94 297.14 176.94 272.57 203.74 272.57 203.74 297.14 214.24 297.14 214.24 239.31 203.74 239.31 203.74 263.79"/><rect class="cls-1" x="225.62" y="239.31" width="10.48" height="57.82"/><polygon class="cls-1" points="257.94 288.35 257.94 272.57 283.13 272.57 283.13 263.79 257.94 263.79 257.94 248.09 285.08 248.09 285.08 239.31 247.47 239.31 247.47 297.14 285.3 297.14 285.3 288.35 257.94 288.35"/></g></g></svg>