<svg xmlns="http://www.w3.org/2000/svg" viewBox="0 0 140.4 159.9"><g id="Calque_2" data-name="Calque 2"><g id="layer"><path d="M70.7,57.25a8.21,8.21,0,0,0-7.2,12.3c2.9,4.6,7.2,11.2,7.2,11.2s4.4-6.6,7.2-11.2A8.24,8.24,0,0,0,70.7,57.25Z"/><path d="M137.1,37.55,73.5.75a7.63,7.63,0,0,0-6.6,0L3.3,37.55A7.07,7.07,0,0,0,0,43.15v73.6a7.23,7.23,0,0,0,3.3,5.6l63.6,36.8a7.63,7.63,0,0,0,6.6,0l63.6-36.8a7.07,7.07,0,0,0,3.3-5.6V43.15A7.23,7.23,0,0,0,137.1,37.55ZM59.7,119a6.48,6.48,0,0,1-5,2.9c-3,0-4.8-2.7-5.1-3L21.1,76.55A18.81,18.81,0,0,1,20,57.25a20.46,20.46,0,0,1,18.5-11.8,21.4,21.4,0,0,1,8.1,1.7l-5.7,10.5a9.28,9.28,0,0,0-2.4-.3,8.21,8.21,0,0,0-7.2,12.3c2.9,4.6,7.2,11.2,7.2,11.2l16.3,22.9,6.1-8.7,7.4,10.8Zm32.1-.1c-.2.2-2.1,2.9-5,2.9a6.33,6.33,0,0,1-4.9-2.8L70.8,102l-7.4-10.7c-4.5-6.7-10-14.7-10-14.7a18.81,18.81,0,0,1-1.1-19.3,20.4,20.4,0,0,1,37,0c4.5,9.8.6,17-1.2,19.6l-9.8,14.7,8.5,13,16.6-24.4v.2h14.4Z"/></g></g></svg>